{"glyphs":{":":{"x_min":0,"x_max":163,"ha":163,"o":"m 42 0 l 42 92 l 121 92 l 121 0 z m 42 408 l 42 500 l 121 500 l 121 408 z"},"$":{"x_min":0,"x_max":384,"ha":384,"o":"m 172 -112 l 172 10 q 116 16 83 60 q 50 104 42 205 l 116 218 q 123 74 193 74 q 267 74 267 170 q 267 240 214 282 l 139 338 q 98 367 76 408 q 54 449 54 515 q 54 676 172 689 l 172 812 l 225 812 l 225 688 q 274 682 304 644 q 333 606 342 523 l 266 505 q 263 623 196 623 q 131 623 131 525 q 131 481 140 455 q 150 429 178 407 l 254 349 q 281 330 297 314 q 313 297 328 260 q 343 223 343 173 q 343 27 225 11 l 225 -112 z"},"?":{"x_min":0,"x_max":358,"ha":358,"o":"m 196 168 l 136 168 q 136 287 184 384 q 231 481 231 543 q 231 605 214 628 q 198 650 168 650 q 137 650 120 622 q 104 595 98 521 l 27 532 q 35 634 70 674 q 106 715 171 715 q 236 715 272 678 q 309 641 309 552 q 309 464 252 358 q 196 251 196 168 z m 127 0 l 127 92 l 206 92 l 206 0 z"},"<":{"x_min":0,"x_max":379,"ha":379,"o":"m 56 317 l 56 383 l 322 533 l 322 467 l 126 350 l 322 233 l 322 167 z"},"'":{"x_min":0,"x_max":177,"ha":177,"o":"m 62 496 l 48 740 l 129 740 l 115 496 z"},"=":{"x_min":0,"x_max":377,"ha":377,"o":"m 56 419 l 56 481 l 320 481 l 320 419 z m 56 219 l 56 281 l 320 281 l 320 219 z"},"a":{"x_min":0,"x_max":368,"ha":368,"o":"m 235 291 l 235 396 q 235 492 175 492 q 124 492 78 433 l 51 489 q 74 517 110 536 q 145 555 182 555 q 312 555 312 379 l 312 0 l 265 0 l 249 65 q 238 25 212 5 q 187 -15 155 -15 q 101 -15 73 20 q 45 54 45 149 l 45 167 q 45 262 73 296 q 101 331 153 331 q 205 331 235 291 z m 171 48 q 200 48 216 69 q 233 90 235 145 l 235 172 q 233 231 216 254 q 200 277 171 277 q 121 277 121 182 l 121 143 q 121 48 171 48 z"},"L":{"x_min":0,"x_max":313,"ha":313,"o":"m 63 0 l 63 700 l 143 700 l 143 64 l 298 64 l 298 0 z"},"3":{"x_min":0,"x_max":408,"ha":408,"o":"m 197 50 q 279 50 279 163 l 279 191 q 279 268 258 296 q 236 323 195 323 l 148 323 l 148 385 l 196 385 q 231 387 251 414 q 271 440 271 505 l 271 535 q 271 653 200 653 q 165 653 146 624 q 126 596 121 521 l 50 532 q 59 635 96 675 q 133 715 202 715 q 271 715 310 674 q 348 632 348 518 q 348 404 290 364 q 359 323 359 181 q 359 73 316 29 q 272 -15 200 -15 q 129 -15 92 25 q 55 65 47 168 l 118 178 q 124 103 142 76 q 161 50 197 50 z"},";":{"x_min":0,"x_max":163,"ha":163,"o":"m 42 0 l 42 92 l 121 92 l 121 4 l 82 -120 l 52 -114 l 64 0 z m 42 408 l 42 500 l 121 500 l 121 408 z"},"J":{"x_min":0,"x_max":295,"ha":295,"o":"m 125 48 q 163 48 163 141 l 163 700 l 242 700 l 242 157 q 242 -15 121 -15 q 81 -15 48 16 q 16 46 10 118 l 82 128 q 86 81 96 64 q 107 48 125 48 z"},"V":{"x_min":0,"x_max":392,"ha":392,"o":"m 96 700 l 196 116 l 296 700 l 376 700 l 246 0 l 146 0 l 16 700 z"},"\"":{"x_min":0,"x_max":301,"ha":301,"o":"m 62 496 l 48 740 l 129 740 l 115 496 z m 187 496 l 172 740 l 253 740 l 238 496 z"},"7":{"x_min":0,"x_max":333,"ha":333,"o":"m 19 636 l 19 700 l 310 700 l 310 662 l 148 0 l 67 0 l 231 636 z"},"S":{"x_min":0,"x_max":398,"ha":398,"o":"m 278 157 q 278 237 224 280 l 144 339 q 54 403 54 528 q 54 632 94 674 q 133 715 202 715 q 270 715 308 676 q 346 638 354 537 l 278 520 q 274 648 204 648 q 133 648 133 539 q 133 491 144 461 q 154 431 184 407 l 263 348 q 291 328 308 310 q 325 292 340 252 q 356 213 356 159 q 356 63 314 24 q 273 -15 202 -15 q 131 -15 91 31 q 51 77 42 195 l 117 208 q 121 123 142 87 q 162 51 199 51 q 278 51 278 157 z"},"}":{"x_min":0,"x_max":282,"ha":282,"o":"m 53 -37 q 80 -37 91 -10 q 102 17 102 85 l 102 166 q 102 299 148 350 q 102 401 102 535 l 102 616 q 102 684 91 711 q 80 738 53 738 q 36 738 19 728 l 4 793 q 26 806 56 806 l 83 803 q 179 782 179 595 l 179 499 q 179 439 192 409 q 204 379 244 379 l 244 322 q 243 322 241 322 q 204 322 192 292 q 179 263 179 202 l 179 106 q 179 -81 83 -102 l 56 -105 q 26 -105 4 -92 l 19 -27 q 36 -37 53 -37 z"},"Z":{"x_min":0,"x_max":351,"ha":351,"o":"m 23 0 l 23 38 l 245 636 l 42 636 l 42 700 l 328 700 l 328 662 l 106 64 l 328 64 l 328 0 z"},"x":{"x_min":0,"x_max":348,"ha":348,"o":"m 104 540 l 182 355 l 249 540 l 328 540 l 217 272 l 332 0 l 247 0 l 166 190 l 97 0 l 17 0 l 131 274 l 19 540 z"},")":{"x_min":0,"x_max":260,"ha":260,"o":"m 6 -105 l 6 -40 q 30 -40 44 -36 q 57 -31 74 -9 q 91 13 100 54 q 121 151 121 365 q 121 655 74 712 q 57 732 43 736 q 29 740 6 740 l 6 805 q 45 805 70 798 q 95 792 122 768 q 149 743 164 696 q 180 650 190 567 q 200 484 200 360 q 200 237 190 148 q 180 59 164 10 q 149 -39 122 -66 q 95 -92 70 -98 q 45 -105 6 -105 z"},"&":{"x_min":0,"x_max":421,"ha":421,"o":"m 26 164 l 26 196 q 26 267 52 304 q 77 341 125 359 q 77 445 77 547 q 77 715 216 715 q 278 715 313 674 q 348 634 357 532 l 286 521 q 281 596 265 623 q 249 650 218 650 q 186 650 170 628 q 153 605 153 538 q 153 471 192 398 l 285 226 q 295 291 299 365 l 365 365 q 354 218 332 141 l 409 0 l 323 0 l 294 53 q 250 -15 162 -15 q 99 -15 62 24 q 26 63 26 164 z m 174 50 q 231 50 258 117 l 157 301 q 103 271 103 196 l 103 163 q 103 98 122 74 q 141 50 174 50 z"},"_":{"x_min":0,"x_max":329,"ha":329,"o":"m 42 -62 l 42 0 l 288 0 l 288 -62 z"},"v":{"x_min":0,"x_max":342,"ha":342,"o":"m 94 540 l 171 121 l 249 540 l 326 540 l 213 0 l 130 0 l 16 540 z"},"O":{"x_min":0,"x_max":411,"ha":411,"o":"m 362 491 l 362 209 q 362 82 322 34 q 281 -15 206 -15 q 130 -15 90 34 q 49 82 49 209 l 49 491 q 49 618 90 666 q 130 715 206 715 q 281 715 322 666 q 362 618 362 491 z m 283 194 l 283 506 q 283 650 206 650 q 169 650 148 619 q 128 588 128 506 l 128 194 q 128 112 148 81 q 169 50 206 50 q 283 50 283 194 z"},"(":{"x_min":0,"x_max":260,"ha":260,"o":"m 236 805 l 236 740 q 213 740 199 736 q 185 732 168 712 q 151 691 142 652 q 121 561 121 406 q 121 252 127 174 q 133 96 142 54 q 151 13 168 -9 q 185 -31 198 -36 q 212 -40 236 -40 l 236 -105 q 197 -105 172 -98 q 147 -92 120 -66 q 93 -39 78 10 q 62 59 52 148 q 42 237 42 360 q 42 484 52 567 q 62 650 78 696 q 93 743 120 768 q 147 792 172 798 q 197 805 236 805 z"},"C":{"x_min":0,"x_max":374,"ha":374,"o":"m 277 177 l 347 168 q 338 66 302 26 q 265 -15 197 -15 q 129 -15 89 34 q 49 83 49 214 l 49 486 q 49 617 89 666 q 129 715 196 715 q 264 715 300 680 q 335 645 343 555 l 270 537 q 264 601 248 626 q 231 650 198 650 q 166 650 147 618 q 128 587 128 503 l 128 193 q 128 111 147 80 q 166 50 201 50 q 236 50 254 76 q 271 103 277 177 z"},"W":{"x_min":0,"x_max":578,"ha":578,"o":"m 372 0 l 289 509 l 206 0 l 124 0 l 19 700 l 99 700 l 171 164 l 259 700 l 321 700 l 406 165 l 479 700 l 559 700 l 454 0 z"},"A":{"x_min":0,"x_max":394,"ha":394,"o":"m 298 0 l 267 182 l 126 182 l 96 0 l 16 0 l 144 700 l 250 700 l 378 0 z m 197 599 l 137 246 l 256 246 z"},"f":{"x_min":0,"x_max":216,"ha":216,"o":"m 222 678 q 205 688 184 688 q 138 688 138 560 l 138 540 l 201 540 l 201 478 l 138 478 l 138 0 l 62 0 l 62 478 l 19 478 l 19 540 l 62 540 l 62 545 q 62 664 92 710 q 122 755 176 755 q 210 755 238 743 z"},"Q":{"x_min":0,"x_max":411,"ha":411,"o":"m 362 491 l 362 259 q 362 111 299 61 l 340 -56 l 268 -56 l 236 37 q 226 35 206 35 q 130 35 90 84 q 49 132 49 259 l 49 491 q 49 618 90 666 q 130 715 206 715 q 281 715 322 666 q 362 618 362 491 z m 283 244 l 283 506 q 283 650 206 650 q 169 650 148 619 q 128 588 128 506 l 128 244 q 128 162 148 131 q 169 100 206 100 l 214 100 l 162 254 l 232 254 l 269 146 q 283 180 283 244 z"},"w":{"x_min":0,"x_max":544,"ha":544,"o":"m 344 0 l 272 420 l 200 0 l 123 0 l 24 540 l 100 540 l 165 136 l 233 540 l 310 540 l 380 137 l 445 540 l 520 540 l 422 0 z"},"-":{"x_min":0,"x_max":252,"ha":252,"o":"m 30 274 l 30 336 l 222 336 l 222 274 z"},"E":{"x_min":0,"x_max":359,"ha":359,"o":"m 143 317 l 143 64 l 317 64 l 317 0 l 63 0 l 63 700 l 314 700 l 314 636 l 143 636 l 143 381 l 299 381 l 299 317 z"},"s":{"x_min":0,"x_max":356,"ha":356,"o":"m 241 121 q 241 178 199 208 l 130 257 q 53 308 53 408 q 53 489 88 522 q 122 555 181 555 q 240 555 273 524 q 306 493 313 411 l 244 397 q 239 494 182 494 q 126 494 126 415 q 126 351 168 320 l 234 274 q 259 257 274 244 q 288 230 302 198 q 315 167 315 125 q 315 48 279 16 q 243 -15 182 -15 q 120 -15 85 22 q 50 58 42 150 l 113 163 q 117 98 134 72 q 150 46 179 46 q 241 46 241 121 z"},">":{"x_min":0,"x_max":379,"ha":379,"o":"m 322 383 l 322 317 l 56 167 l 56 233 l 253 350 l 56 467 l 56 533 z"},"l":{"x_min":0,"x_max":203,"ha":203,"o":"m 63 0 l 63 740 l 140 740 l 140 0 z"},"8":{"x_min":0,"x_max":417,"ha":417,"o":"m 355 532 q 355 395 281 362 q 368 327 368 179 q 368 69 326 27 q 285 -15 208 -15 q 131 -15 90 27 q 49 69 49 179 q 49 330 135 362 q 63 396 63 532 q 63 636 100 676 q 138 715 208 715 q 279 715 317 676 q 355 636 355 532 z m 289 173 l 289 204 q 289 275 268 302 q 247 330 208 330 q 170 330 149 302 q 128 275 128 204 l 128 173 q 128 102 149 74 q 170 47 208 47 q 247 47 268 74 q 289 102 289 173 z m 278 504 l 278 540 q 278 605 260 629 q 242 653 208 653 q 175 653 157 629 q 139 605 139 540 l 139 504 q 139 439 157 415 q 175 391 208 391 q 242 391 260 415 q 278 439 278 504 z"},"\\":{"x_min":0,"x_max":290,"ha":290,"o":"m 65 752 l 237 -52 l 185 -52 l 13 752 z"},"e":{"x_min":0,"x_max":379,"ha":379,"o":"m 49 195 l 49 345 q 49 464 86 510 q 124 555 192 555 q 260 555 295 510 q 330 465 330 345 l 330 238 l 125 238 l 125 181 q 125 47 189 47 q 220 47 237 69 q 254 91 261 151 l 328 140 q 321 53 287 19 q 253 -15 188 -15 q 124 -15 86 30 q 49 76 49 195 z m 125 359 l 125 302 l 253 302 l 253 359 q 253 493 190 493 q 125 493 125 359 z"},"b":{"x_min":0,"x_max":390,"ha":390,"o":"m 136 740 l 136 475 q 163 555 232 555 q 285 555 313 510 q 341 465 341 345 l 341 195 q 341 75 313 30 q 285 -15 232 -15 q 153 -15 132 96 l 110 0 l 63 0 l 63 740 z m 136 270 q 136 180 148 128 q 159 76 174 62 q 189 47 214 47 q 268 47 268 171 l 268 369 q 268 493 215 493 q 192 493 176 479 q 161 465 149 417 q 137 369 136 284 z"},"%":{"x_min":0,"x_max":693,"ha":693,"o":"m 220 -15 l 403 715 l 460 715 l 277 -15 z m 251 581 l 251 411 q 251 335 224 306 q 196 277 145 277 q 94 277 66 306 q 39 335 39 411 l 39 581 q 39 657 66 686 q 94 715 145 715 q 196 715 224 686 q 251 657 251 581 z m 187 402 l 187 590 q 187 666 144 666 q 102 666 102 590 l 102 402 q 102 326 144 326 q 187 326 187 402 z m 654 289 l 654 119 q 654 43 626 14 q 599 -15 548 -15 q 497 -15 470 14 q 442 43 442 119 l 442 289 q 442 365 470 394 q 497 423 548 423 q 599 423 626 394 q 654 365 654 289 z m 590 110 l 590 298 q 590 374 548 374 q 505 374 505 298 l 505 110 q 505 34 548 34 q 590 34 590 110 z"},"m":{"x_min":0,"x_max":587,"ha":587,"o":"m 140 0 l 63 0 l 63 540 l 110 540 l 130 455 q 149 555 229 555 q 305 555 325 457 q 346 555 424 555 q 475 555 502 509 q 530 463 530 341 l 530 0 l 453 0 l 453 368 q 453 493 406 493 q 337 493 335 279 l 335 0 l 258 0 l 258 368 q 258 493 212 493 q 142 493 140 279 z"},"#":{"x_min":0,"x_max":489,"ha":489,"o":"m 249 -15 l 283 211 l 161 211 l 127 -15 l 65 -15 l 99 211 l 27 211 l 40 273 l 109 273 l 132 427 l 58 427 l 69 489 l 142 489 l 177 715 l 238 715 l 204 489 l 326 489 l 361 715 l 424 715 l 389 489 l 462 489 l 449 427 l 379 427 l 356 273 l 430 273 l 417 211 l 346 211 l 312 -15 z m 194 427 l 171 273 l 293 273 l 316 427 z"},",":{"x_min":0,"x_max":163,"ha":163,"o":"m 42 0 l 42 92 l 121 92 l 121 4 l 82 -120 l 52 -114 l 64 0 z"},"n":{"x_min":0,"x_max":398,"ha":398,"o":"m 140 0 l 63 0 l 63 540 l 110 540 l 130 454 q 151 555 235 555 q 287 555 314 509 q 342 463 342 341 l 342 0 l 265 0 l 265 368 q 265 493 216 493 q 142 493 140 279 z"},"h":{"x_min":0,"x_max":398,"ha":398,"o":"m 140 0 l 63 0 l 63 740 l 136 740 l 136 476 q 160 555 235 555 q 287 555 314 509 q 342 463 342 341 l 342 0 l 265 0 l 265 368 q 265 493 216 493 q 142 493 140 279 z"},"z":{"x_min":0,"x_max":320,"ha":320,"o":"m 30 0 l 30 41 l 207 478 l 41 478 l 41 540 l 291 540 l 291 499 l 111 62 l 292 62 l 292 0 z"},"B":{"x_min":0,"x_max":382,"ha":382,"o":"m 63 0 l 63 700 l 177 700 q 252 700 292 658 q 333 616 333 511 q 333 389 248 361 q 348 339 348 200 q 348 89 307 44 q 266 0 193 0 z m 270 181 l 270 208 q 270 333 191 333 l 143 333 l 143 63 l 191 63 q 229 63 250 89 q 270 115 270 181 z m 259 503 l 259 527 q 259 590 239 614 q 219 637 182 637 l 143 637 l 143 386 l 182 386 q 259 386 259 503 z"},"K":{"x_min":0,"x_max":381,"ha":381,"o":"m 143 0 l 63 0 l 63 700 l 143 700 l 143 404 l 290 700 l 370 700 l 217 399 l 376 0 l 296 0 l 175 315 l 143 252 z"},"R":{"x_min":0,"x_max":386,"ha":386,"o":"m 63 0 l 63 700 l 187 700 q 261 700 302 653 q 343 606 343 484 l 343 479 q 343 327 269 286 l 352 0 l 270 0 l 192 268 l 143 268 l 143 0 z m 264 469 l 264 499 q 264 576 244 606 q 223 636 187 636 l 143 636 l 143 331 l 187 331 q 264 331 264 469 z"},"T":{"x_min":0,"x_max":299,"ha":299,"o":"m 13 636 l 13 700 l 286 700 l 286 636 l 189 636 l 189 0 l 110 0 l 110 636 z"},"P":{"x_min":0,"x_max":363,"ha":363,"o":"m 63 0 l 63 700 l 187 700 q 262 700 302 652 q 343 603 343 476 l 343 471 q 343 344 302 296 q 262 248 187 248 l 143 248 l 143 0 z m 264 458 l 264 489 q 264 636 187 636 l 143 636 l 143 311 l 187 311 q 264 311 264 458 z"},"|":{"x_min":0,"x_max":234,"ha":234,"o":"m 91 -52 l 91 752 l 143 752 l 143 -52 z"},"t":{"x_min":0,"x_max":239,"ha":239,"o":"m 20 478 l 20 540 l 73 540 l 100 673 l 146 673 l 146 540 l 217 540 l 217 478 l 146 478 l 146 102 q 146 49 175 49 q 194 49 215 65 l 230 6 q 196 -15 160 -15 q 70 -15 70 118 l 70 478 z"},"M":{"x_min":0,"x_max":541,"ha":541,"o":"m 141 0 l 63 0 l 63 700 l 185 700 l 270 215 l 356 700 l 478 700 l 478 0 l 400 0 l 400 632 l 315 150 l 226 150 l 141 632 z"},"g":{"x_min":0,"x_max":373,"ha":373,"o":"m 369 555 l 369 476 l 310 476 q 327 433 327 362 l 327 353 q 327 242 292 201 q 258 160 186 160 q 158 160 135 166 q 113 150 113 116 q 113 56 168 56 l 230 56 q 354 56 354 -70 q 354 -195 230 -195 l 142 -195 q 19 -195 19 -69 q 19 17 77 44 q 53 63 53 113 q 53 163 96 185 q 47 226 47 353 l 47 362 q 47 473 81 514 q 115 555 180 555 q 246 555 280 524 l 358 555 z m 251 335 l 251 380 q 251 448 234 473 q 218 498 188 498 q 157 498 140 473 q 123 448 123 380 l 123 335 q 123 267 140 242 q 157 217 188 217 q 218 217 234 242 q 251 267 251 335 z m 236 -6 l 136 -6 q 91 -6 91 -68 q 91 -131 136 -131 l 236 -131 q 281 -131 281 -68 q 281 -6 236 -6 z"},"j":{"x_min":0,"x_max":205,"ha":205,"o":"m -19 -118 q -2 -128 18 -128 q 65 -128 65 0 l 65 540 l 141 540 l 141 15 q 141 -104 111 -150 q 81 -195 27 -195 q -7 -195 -34 -183 z m 61 646 l 61 740 l 145 740 l 145 646 z"},"i":{"x_min":0,"x_max":203,"ha":203,"o":"m 63 0 l 63 540 l 140 540 l 140 0 z m 60 646 l 60 740 l 143 740 l 143 646 z"},"y":{"x_min":0,"x_max":349,"ha":349,"o":"m -7 -150 l 20 -98 q 57 -131 84 -131 q 126 -131 140 -49 l 148 -3 l 16 540 l 93 540 l 179 148 l 254 540 l 332 540 l 194 -82 q 182 -137 154 -166 q 125 -195 82 -195 q 40 -195 -7 -150 z"},"@":{"x_min":0,"x_max":616,"ha":616,"o":"m 567 130 l 370 130 l 359 217 q 345 115 270 115 q 224 115 200 150 q 176 185 176 277 l 176 393 q 176 485 200 520 q 225 555 270 555 q 346 555 362 458 l 377 540 l 427 540 l 427 183 l 526 183 l 526 389 q 526 558 463 620 q 432 650 395 662 q 358 675 308 675 q 257 675 220 662 q 183 650 152 620 q 90 557 90 389 l 90 281 q 90 113 152 50 q 183 20 220 8 q 257 -5 308 -5 q 393 -5 441 31 l 458 -11 q 402 -55 308 -55 q 248 -55 204 -40 q 160 -26 124 10 q 49 82 49 281 l 49 389 q 49 587 124 660 q 160 696 204 710 q 248 725 308 725 q 368 725 412 710 q 456 696 492 660 q 567 587 567 389 z m 294 493 q 254 493 254 405 l 254 265 q 254 216 265 196 q 276 177 296 177 q 315 177 326 188 q 337 198 345 234 q 353 270 353 350 q 353 429 338 461 q 323 493 294 493 z"},".":{"x_min":0,"x_max":163,"ha":163,"o":"m 42 0 l 42 92 l 121 92 l 121 0 z"},"p":{"x_min":0,"x_max":390,"ha":390,"o":"m 63 540 l 110 540 l 130 453 q 153 555 232 555 q 285 555 313 510 q 341 465 341 345 l 341 195 q 341 75 313 30 q 285 -15 232 -15 q 159 -15 136 79 l 136 -180 l 63 -180 z m 136 270 q 136 180 148 128 q 159 76 174 62 q 189 47 214 47 q 268 47 268 171 l 268 369 q 268 493 215 493 q 192 493 176 479 q 161 465 149 417 q 137 369 136 284 z"},"X":{"x_min":0,"x_max":381,"ha":381,"o":"m 102 700 l 196 449 l 289 700 l 365 700 l 231 356 l 365 0 l 287 0 l 189 259 l 92 0 l 16 0 l 153 355 l 24 700 z"},"*":{"x_min":0,"x_max":391,"ha":391,"o":"m 309 421 l 222 515 l 226 359 l 165 359 l 168 515 l 82 421 l 48 467 l 149 565 l 48 663 l 82 710 l 168 614 l 165 772 l 226 772 l 222 614 l 309 710 l 343 663 l 241 565 l 343 467 z"},"Y":{"x_min":0,"x_max":374,"ha":374,"o":"m 226 0 l 148 0 l 148 234 l 16 700 l 94 700 l 187 339 l 279 700 l 357 700 l 226 234 z"},"c":{"x_min":0,"x_max":346,"ha":346,"o":"m 49 175 l 49 345 q 49 464 84 510 q 119 555 180 555 q 240 555 274 522 q 308 489 315 403 l 245 384 q 241 493 184 493 q 155 493 140 467 q 125 441 125 359 l 125 168 q 125 98 140 73 q 156 48 185 48 q 214 48 230 72 q 246 97 253 167 l 318 157 q 310 60 275 22 q 240 -15 180 -15 q 119 -15 84 28 q 49 70 49 175 z"},"!":{"x_min":0,"x_max":200,"ha":200,"o":"m 73 167 l 56 700 l 144 700 l 129 167 z m 61 0 l 61 92 l 140 92 l 140 0 z"},"/":{"x_min":0,"x_max":290,"ha":290,"o":"m 33 -52 l 205 752 l 257 752 l 85 -52 z"},"[":{"x_min":0,"x_max":266,"ha":266,"o":"m 63 -100 l 63 800 l 236 800 l 236 736 l 142 736 l 142 -36 l 236 -36 l 236 -100 z"},"6":{"x_min":0,"x_max":404,"ha":404,"o":"m 49 199 l 49 486 q 49 616 90 666 q 131 715 200 715 q 268 715 304 680 q 341 644 349 553 l 276 535 q 272 600 254 625 q 237 650 202 650 q 168 650 148 618 q 128 587 128 503 l 128 373 q 162 410 223 410 q 284 410 323 364 q 362 318 362 198 q 362 77 321 31 q 280 -15 205 -15 q 130 -15 90 31 q 49 77 49 199 z m 286 185 l 286 210 q 286 348 208 348 q 129 348 128 218 l 128 185 q 128 47 207 47 q 286 47 286 185 z"},"r":{"x_min":0,"x_max":258,"ha":258,"o":"m 230 555 l 250 554 l 244 469 q 230 476 217 476 q 141 476 140 318 l 140 0 l 63 0 l 63 540 l 110 540 l 132 448 q 152 555 230 555 z"},"2":{"x_min":0,"x_max":400,"ha":400,"o":"m 290 353 l 110 64 l 350 64 l 350 0 l 51 0 l 51 48 q 51 99 68 139 q 84 179 141 269 l 224 399 q 273 467 273 549 q 273 607 254 630 q 235 653 200 653 q 166 653 147 624 q 128 596 122 521 l 52 532 q 61 635 98 675 q 135 715 204 715 q 273 715 312 678 q 352 642 352 548 q 352 453 290 353 z"},"{":{"x_min":0,"x_max":282,"ha":282,"o":"m 85 106 l 85 202 q 85 263 72 292 q 60 322 23 322 q 21 322 20 322 l 20 379 q 60 379 72 409 q 85 439 85 499 l 85 595 q 85 782 181 803 l 208 806 q 238 806 260 793 l 245 728 q 228 738 211 738 q 184 738 173 711 q 162 684 162 616 l 162 535 q 162 401 116 350 q 162 299 162 166 l 162 85 q 162 17 173 -10 q 184 -37 211 -37 q 228 -37 245 -27 l 260 -92 q 238 -105 208 -105 l 181 -102 q 85 -81 85 106 z"},"9":{"x_min":0,"x_max":404,"ha":404,"o":"m 45 168 l 115 178 q 123 103 142 76 q 161 50 198 50 q 236 50 256 82 q 277 113 277 197 l 277 327 q 244 290 182 290 q 121 290 82 336 q 42 382 42 502 q 42 623 84 669 q 125 715 200 715 q 275 715 315 669 q 355 623 355 501 l 355 214 q 355 83 314 34 q 274 -15 202 -15 q 131 -15 93 25 q 55 65 45 168 z m 118 515 l 118 490 q 118 352 198 352 q 234 352 255 380 q 276 409 277 482 l 277 515 q 277 653 198 653 q 118 653 118 515 z"}," ":{"x_min":0,"x_max":144,"ha":144,"o":""},"I":{"x_min":0,"x_max":206,"ha":206,"o":"m 63 0 l 63 700 l 143 700 l 143 0 z"},"H":{"x_min":0,"x_max":436,"ha":436,"o":"m 294 0 l 294 317 l 143 317 l 143 0 l 63 0 l 63 700 l 143 700 l 143 381 l 294 381 l 294 700 l 373 700 l 373 0 z"},"4":{"x_min":0,"x_max":379,"ha":379,"o":"m 231 0 l 231 164 l 7 164 l 7 202 l 175 700 l 310 700 l 310 228 l 351 228 l 351 164 l 310 164 l 310 0 z m 231 228 l 231 644 l 89 228 z"},"~":{"x_min":0,"x_max":377,"ha":377,"o":"m 56 381 q 81 364 109 364 q 137 364 188 380 q 238 397 267 397 q 296 397 320 381 l 320 319 q 294 336 266 336 q 238 336 188 318 q 138 301 110 301 q 81 301 56 319 z"},"D":{"x_min":0,"x_max":406,"ha":406,"o":"m 63 0 l 63 700 l 199 700 q 275 700 316 652 q 357 603 357 476 l 357 224 q 357 97 316 48 q 275 0 199 0 z m 278 206 l 278 493 q 278 636 199 636 l 143 636 l 143 63 l 199 63 q 278 63 278 206 z"},"^":{"x_min":0,"x_max":265,"ha":265,"o":"m 132 604 l 83 320 l 21 320 l 99 698 l 167 698 l 245 320 l 183 320 z"},"0":{"x_min":0,"x_max":411,"ha":411,"o":"m 362 491 l 362 209 q 362 82 322 34 q 281 -15 206 -15 q 130 -15 90 34 q 49 82 49 209 l 49 491 q 49 618 90 666 q 130 715 206 715 q 281 715 322 666 q 362 618 362 491 z m 283 194 l 283 506 q 283 650 206 650 q 169 650 148 619 q 128 588 128 506 l 128 194 q 128 112 148 81 q 169 50 206 50 q 283 50 283 194 z"},"F":{"x_min":0,"x_max":323,"ha":323,"o":"m 143 317 l 143 0 l 63 0 l 63 700 l 303 700 l 303 636 l 143 636 l 143 381 l 288 381 l 288 317 z"},"`":{"x_min":0,"x_max":245,"ha":245,"o":"m 97 756 l 227 638 l 205 602 l 62 689 z"},"k":{"x_min":0,"x_max":359,"ha":359,"o":"m 140 0 l 63 0 l 63 740 l 140 740 l 140 327 l 262 540 l 342 540 l 211 323 l 359 0 l 276 0 l 166 248 l 140 204 z"},"u":{"x_min":0,"x_max":391,"ha":391,"o":"m 251 540 l 327 540 l 327 0 l 280 0 l 264 66 q 241 -15 167 -15 q 112 -15 84 19 q 56 53 56 149 l 56 540 l 132 540 l 132 143 q 132 88 146 68 q 159 48 186 48 q 247 48 251 145 z"},"]":{"x_min":0,"x_max":266,"ha":266,"o":"m 183 800 l 183 -100 l 10 -100 l 10 -36 l 104 -36 l 104 736 l 10 736 l 10 800 z"},"U":{"x_min":0,"x_max":422,"ha":422,"o":"m 287 700 l 366 700 l 366 209 q 366 82 326 34 q 285 -15 211 -15 q 137 -15 96 34 q 56 82 56 209 l 56 700 l 135 700 l 135 194 q 135 113 155 82 q 175 50 210 50 q 246 50 266 82 q 287 113 287 194 z"},"o":{"x_min":0,"x_max":379,"ha":379,"o":"m 330 345 l 330 195 q 330 76 294 30 q 257 -15 190 -15 q 122 -15 86 30 q 49 76 49 195 l 49 345 q 49 464 86 510 q 122 555 190 555 q 257 555 294 510 q 330 464 330 345 z m 253 181 l 253 359 q 253 493 190 493 q 125 493 125 359 l 125 181 q 125 47 190 47 q 253 47 253 181 z"},"N":{"x_min":0,"x_max":450,"ha":450,"o":"m 141 0 l 63 0 l 63 700 l 146 700 l 309 188 l 309 700 l 387 700 l 387 0 l 304 0 l 141 511 z"},"+":{"x_min":0,"x_max":377,"ha":377,"o":"m 56 319 l 56 381 l 159 381 l 159 529 l 218 529 l 218 381 l 320 381 l 320 319 l 218 319 l 218 171 l 159 171 l 159 319 z"},"G":{"x_min":0,"x_max":408,"ha":408,"o":"m 195 307 l 195 371 l 352 371 l 352 1 l 303 1 l 289 66 q 259 -15 181 -15 q 118 -15 84 34 q 49 82 49 209 l 49 486 q 49 617 89 666 q 129 715 196 715 q 264 715 300 680 q 335 645 343 555 l 270 537 q 264 601 248 626 q 231 650 198 650 q 166 650 147 618 q 128 587 128 503 l 128 194 q 128 112 146 81 q 165 50 199 50 q 275 50 277 185 l 277 307 z"},"q":{"x_min":0,"x_max":390,"ha":390,"o":"m 326 540 l 326 -180 l 253 -180 l 253 79 q 229 -15 158 -15 q 106 -15 78 30 q 49 76 49 195 l 49 345 q 49 464 78 510 q 106 555 158 555 q 236 555 259 456 l 279 540 z m 174 493 q 123 493 123 369 l 123 171 q 123 102 137 74 q 151 47 179 47 q 195 47 206 55 q 218 63 229 84 q 251 126 253 256 l 253 284 q 252 369 240 417 q 229 465 214 479 q 198 493 174 493 z"},"d":{"x_min":0,"x_max":392,"ha":392,"o":"m 158 -15 q 106 -15 78 30 q 49 76 49 195 l 49 345 q 49 464 78 510 q 106 555 158 555 q 230 555 256 469 l 256 740 l 329 740 l 329 0 l 282 0 l 258 104 q 238 -15 158 -15 z m 174 493 q 123 493 123 369 l 123 171 q 123 102 137 74 q 151 47 176 47 q 201 47 216 62 q 231 76 242 128 q 253 179 253 270 q 253 361 242 412 q 230 464 214 478 q 199 493 174 493 z"},"1":{"x_min":0,"x_max":235,"ha":235,"o":"m 172 700 l 172 0 l 92 0 l 92 611 l 6 611 l 6 657 l 128 700 z"},"5":{"x_min":0,"x_max":378,"ha":378,"o":"m 61 334 l 61 700 l 331 700 l 331 636 l 134 636 l 134 396 l 187 396 q 263 396 303 356 q 343 315 343 198 q 343 80 302 32 q 262 -15 193 -15 q 124 -15 87 26 q 50 66 42 168 l 112 177 q 118 102 136 76 q 154 50 190 50 q 225 50 246 80 q 266 111 266 191 l 266 213 q 266 281 246 308 q 226 334 187 334 z"}}}
